<svg width="30" height="84" viewBox="0 0 30 84" fill="none" xmlns="http://www.w3.org/2000/svg">
<g clip-path="url(#clip0_2309_144302)">
<path d="M21 43.0004C21.5523 43.0004 22 42.5527 22 42.0004C22 41.4481 21.5523 41.0004 21 41.0004V43.0004ZM8.29292 41.2933C7.9024 41.6838 7.9024 42.3169 8.29292 42.7075L14.6569 49.0714C15.0474 49.462 15.6806 49.462 16.0711 49.0714C16.4616 48.6809 16.4616 48.0477 16.0711 47.6572L10.4142 42.0004L16.0711 36.3435C16.4616 35.953 16.4616 35.3198 16.0711 34.9293C15.6806 34.5388 15.0474 34.5388 14.6569 34.9293L8.29292 41.2933ZM21 41.0004H9.00003V43.0004H21V41.0004Z" fill="white"/>
</g>
<defs>
<clipPath id="clip0_2309_144302">
<rect x="30" width="84" height="30" rx="15" transform="rotate(90 30 0)" fill="white"/>
</clipPath>
</defs>
</svg>
