<svg width="22" height="22" viewBox="0 0 22 22" fill="none" xmlns="http://www.w3.org/2000/svg">
<path d="M6.4531 0.0909119C2.94517 0.0909119 0.0908813 2.94688 0.0908813 6.45569V15.546C0.0908813 19.0544 2.94685 21.9091 6.45565 21.9091H15.546C19.0544 21.9091 21.9091 19.0531 21.9091 15.5443V6.45313C21.9091 2.9452 19.0531 0.0909119 15.5443 0.0909119H6.4531ZM17.5454 3.58182C18.0272 3.58182 18.4182 3.9728 18.4182 4.45455C18.4182 4.93629 18.0272 5.32728 17.5454 5.32728C17.0637 5.32728 16.6727 4.93629 16.6727 4.45455C16.6727 3.9728 17.0637 3.58182 17.5454 3.58182ZM11 5.32728C14.1287 5.32728 16.6727 7.87128 16.6727 11C16.6727 14.1287 14.1283 16.6727 11 16.6727C7.87125 16.6727 5.32725 14.1283 5.32725 11C5.32725 7.87171 7.87125 5.32728 11 5.32728ZM11 7.07273C8.83081 7.07273 7.0727 8.83084 7.0727 11C7.0727 13.1692 8.83081 14.9273 11 14.9273C13.1691 14.9273 14.9272 13.1692 14.9272 11C14.9272 8.83084 13.1691 7.07273 11 7.07273Z" fill="white"/>
</svg>
