<svg width="18" height="14" viewBox="0 0 18 14" fill="none" xmlns="http://www.w3.org/2000/svg">
<path d="M17.0803 0.33753C16.3612 0.844752 15.565 1.2327 14.7224 1.48642C14.2702 0.966424 13.6692 0.597864 13.0006 0.430587C12.3321 0.26331 11.6283 0.305388 10.9845 0.551129C10.3406 0.796869 9.7878 1.23442 9.40074 1.80459C9.01368 2.37477 8.81106 3.05007 8.8203 3.73915V4.49006C7.50068 4.52427 6.19308 4.2316 5.01395 3.63811C3.83482 3.04462 2.82078 2.16872 2.06212 1.08844C2.06212 1.08844 -0.941516 7.84662 5.81667 10.8503C4.27019 11.9 2.42793 12.4264 0.560303 12.3521C7.31848 16.1066 15.5785 12.3521 15.5785 3.71662C15.5778 3.50746 15.5577 3.29881 15.5184 3.09337C16.2848 2.33757 16.8256 1.38333 17.0803 0.33753Z" fill="white" fill-opacity="0.8"/>
</svg>
