<svg width="22" height="26" viewBox="0 0 22 26" fill="none" xmlns="http://www.w3.org/2000/svg">
<path d="M19.192 6.11101C19.0221 6.02319 18.8567 5.92693 18.6964 5.82257C18.2304 5.51445 17.803 5.15139 17.4237 4.74121C16.4745 3.65513 16.12 2.55332 15.9894 1.78189H15.9946C15.8855 1.14157 15.9306 0.727272 15.9375 0.727272H11.6141V17.4449C11.6141 17.6693 11.6141 17.8911 11.6047 18.1103C11.6047 18.1376 11.602 18.1628 11.6005 18.1922C11.6005 18.2042 11.6005 18.2168 11.5978 18.2294C11.5978 18.2325 11.5978 18.2357 11.5978 18.2388C11.5523 18.8387 11.36 19.4181 11.0379 19.9262C10.7159 20.4342 10.2739 20.8554 9.75083 21.1525C9.20571 21.4627 8.58917 21.6253 7.96202 21.6245C5.9477 21.6245 4.31517 19.982 4.31517 17.9535C4.31517 15.9251 5.9477 14.2826 7.96202 14.2826C8.34332 14.2822 8.72227 14.3422 9.08481 14.4604L9.09005 10.0583C7.98948 9.91618 6.87138 10.0036 5.8063 10.3152C4.74123 10.6268 3.75228 11.1557 2.90185 11.8687C2.15668 12.5161 1.53021 13.2886 1.05064 14.1515C0.868136 14.4661 0.179568 15.7305 0.0961842 17.7826C0.0437419 18.9473 0.393532 20.154 0.560299 20.6528V20.6632C0.665184 20.9569 1.07161 21.9591 1.73396 22.8039C2.26805 23.4816 2.89906 24.077 3.60668 24.5707V24.5602L3.61717 24.5707C5.71014 25.993 8.03072 25.8996 8.03072 25.8996C8.43242 25.8834 9.7781 25.8996 11.3063 25.1754C13.0012 24.3725 13.9661 23.1763 13.9661 23.1763C14.5826 22.4615 15.0728 21.647 15.4157 20.7676C15.8069 19.7392 15.9375 18.5058 15.9375 18.0128V9.14375C15.9899 9.17521 16.6884 9.63723 16.6884 9.63723C16.6884 9.63723 17.6948 10.2823 19.2649 10.7023C20.3914 11.0013 21.9091 11.0642 21.9091 11.0642V6.77231C21.3773 6.82999 20.2975 6.66218 19.192 6.11101Z" fill="black"/>
</svg>
