<svg width="26" height="21" viewBox="0 0 26 21" fill="none" xmlns="http://www.w3.org/2000/svg">
<path d="M25.8058 0.466007C24.7141 1.236 23.5055 1.82493 22.2264 2.2101C21.5398 1.42071 20.6274 0.861212 19.6126 0.607274C18.5977 0.353337 17.5293 0.417213 16.5519 0.790264C15.5745 1.16331 14.7353 1.82754 14.1477 2.69311C13.5601 3.55867 13.2525 4.58382 13.2665 5.62989V6.76982C11.2633 6.82177 9.27822 6.37747 7.48823 5.47651C5.69824 4.57555 4.15885 3.24588 3.00716 1.60594C3.00716 1.60594 -1.55257 11.8653 8.70681 16.425C6.35915 18.0186 3.56248 18.8177 0.727295 18.7049C10.9867 24.4045 23.5259 18.7049 23.5259 5.59569C23.5248 5.27817 23.4943 4.96143 23.4347 4.64955C24.5981 3.5022 25.4191 2.0536 25.8058 0.466007Z" fill="black"/>
</svg>
