<svg width="28" height="20" viewBox="0 0 28 20" fill="none" xmlns="http://www.w3.org/2000/svg">
<path d="M27.7211 4.4001C27.7211 4.4001 27.4477 2.46963 26.6055 1.62197C25.5391 0.506348 24.3469 0.500879 23.8 0.435254C19.8844 0.150879 14.0055 0.150879 14.0055 0.150879H13.9945C13.9945 0.150879 8.11562 0.150879 4.2 0.435254C3.65313 0.500879 2.46094 0.506348 1.39453 1.62197C0.552344 2.46963 0.284375 4.4001 0.284375 4.4001C0.284375 4.4001 0 6.66963 0 8.93369V11.0556C0 13.3196 0.278906 15.5892 0.278906 15.5892C0.278906 15.5892 0.552344 17.5196 1.38906 18.3673C2.45547 19.4829 3.85547 19.4446 4.47891 19.5649C6.72109 19.7782 14 19.8438 14 19.8438C14 19.8438 19.8844 19.8329 23.8 19.554C24.3469 19.4884 25.5391 19.4829 26.6055 18.3673C27.4477 17.5196 27.7211 15.5892 27.7211 15.5892C27.7211 15.5892 28 13.3251 28 11.0556V8.93369C28 6.66963 27.7211 4.4001 27.7211 4.4001ZM11.107 13.6313V5.76182L18.6703 9.71025L11.107 13.6313Z" fill="black"/>
</svg>
