<svg width="34" height="24" viewBox="0 0 34 24" fill="none" xmlns="http://www.w3.org/2000/svg">
<rect y="5" width="34" height="14" rx="7" fill="#696969"/>
<g clip-path="url(#clip0_36_53)">
<circle cx="12" cy="12" r="12" fill="#333333"/>
<path fill-rule="evenodd" clip-rule="evenodd" d="M12 21C16.9706 21 21 16.9706 21 12C21 11.3237 20.9254 10.6649 20.784 10.0313C20.1208 12.3238 18.0062 14 15.5 14C12.4624 14 10 11.5376 10 8.5C10 5.99383 11.6762 3.87916 13.9687 3.21598C13.3351 3.07459 12.6763 3 12 3C7.02944 3 3 7.02944 3 12C3 16.9706 7.02944 21 12 21Z" fill="#F6C800"/>
</g>
<defs>
<clipPath id="clip0_36_53">
<rect width="24" height="24" fill="white"/>
</clipPath>
</defs>
</svg>
