<svg width="16" height="16" viewBox="0 0 16 16" fill="none" xmlns="http://www.w3.org/2000/svg">
<path d="M5.99998 14.6667H9.99998C13.3333 14.6667 14.6666 13.3333 14.6666 9.99999V5.99999C14.6666 2.66666 13.3333 1.33333 9.99998 1.33333H5.99998C2.66665 1.33333 1.33331 2.66666 1.33331 5.99999V9.99999C1.33331 13.3333 2.66665 14.6667 5.99998 14.6667Z" stroke="#C7C7C7" stroke-linecap="round" stroke-linejoin="round"/>
<path d="M6.5 7C7.32843 7 8 6.32843 8 5.5C8 4.67157 7.32843 4 6.5 4C5.67157 4 5 4.67157 5 5.5C5 6.32843 5.67157 7 6.5 7Z" stroke="#C7C7C7" stroke-linecap="round" stroke-linejoin="round"/>
<path d="M1.77997 12.6334L5.06663 10.4267C5.5933 10.0734 6.3533 10.1134 6.82663 10.52L7.04663 10.7134C7.56663 11.16 8.40663 11.16 8.92663 10.7134L11.7 8.33337C12.22 7.8867 13.06 7.8867 13.58 8.33337L14.6666 9.2667" stroke="#C7C7C7" stroke-linecap="round" stroke-linejoin="round"/>
</svg>
