<svg width="16" height="16" viewBox="0 0 16 16" fill="none" xmlns="http://www.w3.org/2000/svg">
<path fill-rule="evenodd" clip-rule="evenodd" d="M14.0733 9.72668C12.5467 12.1267 10.3534 13.5133 8.00002 13.5133C5.64668 13.5133 3.45335 12.1267 1.92668 9.72668C1.32668 8.78668 1.32668 7.20668 1.92668 6.26668C3.45335 3.86668 5.64668 2.48001 8.00002 2.48001C10.3534 2.48001 12.5467 3.86668 14.0733 6.26668C14.6734 7.20668 14.6734 8.78668 14.0733 9.72668ZM8.00001 10.3867C9.32001 10.3867 10.3867 9.32001 10.3867 8.00001C10.3867 6.68001 9.32001 5.61334 8.00001 5.61334C6.68001 5.61334 5.61334 6.68001 5.61334 8.00001C5.61334 9.32001 6.68001 10.3867 8.00001 10.3867Z" fill="#F7F7F7"/>
</svg>
